<?xml version="1.0" encoding="utf-8"?>
<!-- Generator: Adobe Illustrator 26.0.3, SVG Export Plug-In . SVG Version: 6.00 Build 0)  -->
<svg version="1.1" id="Layer_1" xmlns="http://www.w3.org/2000/svg" xmlns:xlink="http://www.w3.org/1999/xlink" x="0px" y="0px"
	 viewBox="0 0 5273.35 1965.86" style="enable-background:new 0 0 5273.35 1965.86;" xml:space="preserve">
<style type="text/css">
	.st0{fill:#FF8500;}
	.st1{fill:#FFFFFF;}
	.st2{fill:#F37121;}
</style>
<rect x="-9.32" y="-12.83" class="st0" width="5292" height="1991.51"/>
<g>
	<path class="st1" d="M1278.76,724.95c-219.9,0-370.2,160.05-370.2,367.42s147.52,367.42,385.51,367.42
		c132.22,0,235.21-48.71,303.4-143.35l-167.01-96.03c-27.84,30.62-76.55,52.88-133.61,52.88c-76.55,0-140.57-25.05-167.01-97.42
		h494.07c5.57-26.44,8.35-54.28,8.35-83.51C1632.27,882.22,1481.96,724.95,1278.76,724.95z M1125.67,1020
		c19.48-70.98,72.37-109.95,151.7-109.95c62.63,0,125.26,29.23,147.53,109.95H1125.67z"/>
	<path class="st1" d="M2413.48,1303.49c66.12,0,95.2-35.05,95.2-78.15c0-43.06-29.08-78.15-95.2-78.15h-33.06l-61.1-91.18
		l127.22-161.28h-125.04l55.59-150.29h-231l-144.77,441.17l-144.73-441.17h-231.04l257.47,695.88h236.6l48.42-130.83l138.26-80.14
		C2322.31,1275.44,2352.38,1303.49,2413.48,1303.49z"/>
	<path class="st1" d="M2923.97,724.94c-91.86,0-161.44,33.4-199.02,84.9v-65.41l-84.02,0.02v130.25l-120.9,153.89l-0.31,0.38
		c0.11,0.04,0.19,0.08,0.31,0.11c86,30.11,148.95,99.18,148.95,196.26c0,110.21-61.33,182.62-145.69,214.95
		c-0.01,0.01-0.03,0.01-0.04,0.02h201.71v-379.95c0-98.81,52.89-143.35,129.43-143.35c66.8,0,121.08,40.36,121.08,126.65v396.65
		h208.76v-427.27C3184.22,825.15,3064.53,724.94,2923.97,724.94z"/>
	<path class="st1" d="M3568.05,549.58l-208.77,62.63v132.21h-111.34v200.41h111.34v246.34c0,194.84,79.33,276.96,352.11,249.12
		v-189.28c-91.86,5.57-143.35,0-143.35-59.85V944.84h143.35V744.43h-143.35V549.58z"/>
	<path class="st1" d="M4022.43,947.62c0-25.05,22.27-38.97,58.45-38.97c45.93,0,73.76,25.05,93.25,61.24l178.14-96.03
		c-58.45-98.81-158.66-148.92-271.39-148.92c-144.74,0-272.78,76.55-272.78,228.25c0,240.77,342.37,200.41,342.37,276.96
		c0,27.83-25.05,43.14-75.16,43.14c-61.24,0-100.21-29.23-118.3-82.11l-180.93,102.99c54.28,112.73,160.05,165.62,299.23,165.62
		c150.31,0,289.48-68.2,289.48-228.24C4364.8,974.07,4022.43,1026.95,4022.43,947.62z"/>
</g>
<g>
	<polygon class="st1" points="3796.07,610.91 3702.4,493 3677.76,493 3677.76,668.98 3709.09,668.98 3709.09,551.12 3802.52,668.98 
		3827.17,668.98 3827.17,493 3796.07,493 	"/>
	<polygon class="st1" points="3944.07,668.98 3975.39,668.98 3975.39,600.35 4059.04,600.35 4059.04,571.34 3975.39,571.34 
		3975.39,522.01 4069.21,522.01 4069.21,493 3944.07,493 	"/>
	<polygon class="st1" points="4186.11,493 4186.11,522.01 4242.96,522.01 4242.96,668.98 4274.28,668.98 4274.28,522.01 
		4331.12,522.01 4331.12,493 	"/>
</g>
</svg>
